#!OML:ASF X:\für Bonn\!DataBase\2005_08_11_Bastian_Final\c3d\Bastian.ASF
:FULLY-SPECIFIED
:DEGREES
79
root 0.68707 7.87245 1.38619 168.512 -1.75338 -174.172
lowerback 40.3784 1.82408 0.0535619
upperback 6.58371 -0.176842 1.62777
thorax -12.2089 -1.20945 2.06017
lowerneck -13.312 -6.54908 -0.561407
upperneck -14.3202 -5.65329 11.1155
head -2.01137 -1.92196 3.59915
rclavicle 0 -8.34896e-015
rhumerus 69.3213 -1.09756 17.8409
rradius 42.7629
rwrist -73.343
rhand -50.4622 -3.54155
rfingers 7.12502
rthumb -23.0327 -32.1852
lclavicle 0 -8.34896e-015
lhumerus 63.2403 -10.2493 -26.4682
lradius 35.1825
lwrist 26.7031
lhand -49.0119 23.5761
lfingers 7.12502
lthumb -21.6404 52.3868
rfemur -62.066 -40.2799 22.7661
rtibia 149.107
rfoot -46.7808 -5.61968
rtoes -10.7745
lfemur -64.7857 40.6008 -8.20169
ltibia 151.222
lfoot -47.9232 -20.9969
ltoes -11.2163
80
root 0.685619 8.1059 1.39742 168.688 -1.85479 -173.928
lowerback 40.3968 1.73979 0.174435
upperback 6.51682 -0.199389 1.69725
thorax -12.2904 -1.21354 2.08308
lowerneck -13.0397 -6.50848 -0.537527
upperneck -14.3971 -5.60843 11.0898
head -2.08703 -1.91833 3.59714
rclavicle 6.95746e-015 6.75868e-015
rhumerus 69.3254 -0.762321 18.454
rradius 42.7905
rwrist -73.1065
rhand -50.4838 -4.31259
rfingers 7.12502
rthumb -23.0534 -32.9537
lclavicle 6.95746e-015 6.75868e-015
lhumerus 63.528 -11.0261 -27.2947
lradius 35.3438
lwrist 26.796
lhand -49.5303 23.6735
lfingers 7.12502
lthumb -22.1383 52.426
rfemur -61.7657 -37.1634 23.7514
rtibia 147.271
rfoot -45.8101 -5.8768
rtoes -10.5095
lfemur -64.3465 36.9347 -8.48435
ltibia 149.376
lfoot -46.8055 -20.6978
ltoes -11.9763
81
root 0.684111 8.33529 1.40291 168.876 -1.95702 -173.654
lowerback 40.2799 1.63835 0.3415
upperback 6.45974 -0.216499 1.75241
thorax -12.315 -1.21308 2.06067
lowerneck -12.753 -6.47663 -0.468279
upperneck -14.4626 -5.58405 11.0517
head -2.16194 -1.92819 3.58188
rclavicle 0 3.97569e-015
rhumerus 69.3259 -0.444442 18.9259
rradius 42.7656
rwrist -72.9204
rhand -50.5064 -4.85435
rfingers 7.12502
rthumb -23.075 -33.4927
lclavicle 0 3.97569e-015
lhumerus 63.8941 -11.6846 -27.9051
lradius 35.4468
lwrist 27.0831
lhand -50.1408 23.6005
lfingers 7.12502
lthumb -22.7243 52.2823
rfemur -61.3433 -34.6277 24.6197
rtibia 145.435
rfoot -44.8781 -6.16087
rtoes -10.1186
lfemur -63.8751 33.7576 -8.65232
ltibia 147.583
lfoot -45.6901 -20.2293
ltoes -12.9876
82
root 0.68268 8.56366 1.40452 169.067 -2.07744 -173.376
lowerback 40.0567 1.52513 0.508352
upperback 6.4308 -0.249863 1.80593
thorax -12.2711 -1.22013 2.0409
lowerneck -12.5368 -6.44546 -0.416196
upperneck -14.4955 -5.55737 11.0378
head -2.21299 -1.93179 3.57555
rclavicle -7.95139e-016 -1.74931e-014
rhumerus 69.3631 -0.182833 19.1578
rradius 42.6919
rwrist -72.7305
rhand -50.5136 -5.14335
rfingers 7.12502
rthumb -23.082 -33.7809
lclavicle -7.95139e-016 -1.74931e-014
lhumerus 64.2384 -12.1698 -27.9664
lradius 35.3886
lwrist 27.2387
lhand -50.7153 23.3276
lfingers 7.12502
lthumb -23.2755 51.9408
rfemur -60.8007 -32.541 25.3758
rtibia 143.579
rfoot -44.0158 -6.54063
rtoes -10.0204
lfemur -63.345 30.8799 -8.73274
ltibia 145.801
lfoot -44.5198 -19.8373
ltoes -13.7663
83
root 0.682782 8.79992 1.40125 169.25 -2.22374 -173.095
lowerback 39.7728 1.40666 0.656318
upperback 6.4114 -0.29692 1.85985
thorax -12.1952 -1.23179 2.03561
lowerneck -12.3999 -6.46095 -0.578199
upperneck -14.4386 -5.57752 11.164
head -2.20553 -1.94652 3.65097
rclavicle 7.95139e-015 -3.18055e-014
rhumerus 69.4128 0.037356 19.2679
rradius 42.5978
rwrist -72.6633
rhand -50.5697 -5.0515
rfingers 7.12502
rthumb -23.1358 -33.6823
lclavicle 7.95139e-015 -3.18055e-014
lhumerus 64.5895 -12.5603 -28.056
lradius 35.3436
lwrist 27.7044
lhand -51.2706 23.1191
lfingers 7.12502
lthumb -23.8082 51.6639
rfemur -60.1441 -30.7021 26.0819
rtibia 141.641
rfoot -43.1543 -6.93845
rtoes -9.89456
lfemur -62.7595 28.1932 -8.77769
ltibia 143.988
lfoot -43.4048 -19.2143
ltoes -15.04
